<svg width="32" height="14" viewBox="0 0 32 14" fill="none" xmlns="http://www.w3.org/2000/svg">
<g clip-path="url(#clip0_7_218)">
<path d="M17.7746 6.10902H29.0278C29.8158 6.10902 30.5715 5.79387 31.1289 5.23284C31.6862 4.67181 31.9996 3.91083 32 3.11719C32 2.32326 31.6869 1.56185 31.1294 1.00045C30.572 0.439059 29.816 0.123671 29.0278 0.123671H17.7746C16.9863 0.123671 16.2303 0.439059 15.6729 1.00045C15.1155 1.56185 14.8024 2.32326 14.8024 3.11719V3.11719C14.8028 3.91083 15.1161 4.67181 15.6735 5.23284C16.2309 5.79387 16.9866 6.10902 17.7746 6.10902V6.10902ZM2.97225 13.7326H15.9075C16.6955 13.7326 17.4512 13.4174 18.0086 12.8564C18.5659 12.2954 18.8793 11.5344 18.8797 10.7408V10.7408C18.8797 9.94684 18.5666 9.18542 18.0092 8.62403C17.4518 8.06263 16.6958 7.74724 15.9075 7.74724H2.97225C2.18396 7.74724 1.42795 8.06263 0.870551 8.62403C0.313146 9.18542 0 9.94684 0 10.7408H0C0.000445952 11.5344 0.313789 12.2954 0.871145 12.8564C1.4285 13.4174 2.18425 13.7326 2.97225 13.7326V13.7326ZM1.75105 6.0006H3.06308V1.17234H4.76198V0H0.0521447V1.16895H1.75105V6.0006ZM6.47771 6.0006H7.78974V1.39766H7.80656L9.32044 5.99721H10.3297L11.894 1.39766H11.9108V5.99721H13.2229V0H11.2296L9.85029 3.91343H9.83347L8.46257 0H6.47771V6.0006ZM25.64 9.43121C25.4646 9.06269 25.2038 8.74198 24.8797 8.49605C24.5435 8.2484 24.1614 8.07099 23.7561 7.97426C23.3121 7.86255 22.8563 7.80566 22.3987 7.80484H20.4306V13.8021H22.5753C23.0061 13.8042 23.4346 13.7384 23.8452 13.6072C24.233 13.4884 24.5952 13.2976 24.9134 13.0448C25.2228 12.7918 25.4737 12.4738 25.6484 12.113C25.8374 11.7121 25.9312 11.2725 25.9226 10.8289C25.9363 10.3473 25.8396 9.86902 25.64 9.43121V9.43121ZM24.3902 11.6217C24.2918 11.8478 24.1393 12.0457 23.9462 12.1977C23.7455 12.3463 23.5164 12.4513 23.2733 12.506C22.9976 12.57 22.7153 12.6013 22.4323 12.5992H21.751V9.04156H22.5248C22.7903 9.04023 23.0547 9.07616 23.3103 9.14829C23.5455 9.21215 23.7669 9.31959 23.963 9.46509C24.1428 9.60762 24.2888 9.78878 24.3902 9.99535C24.5058 10.2336 24.5634 10.496 24.5585 10.7611C24.5658 11.0569 24.5084 11.3508 24.3902 11.6217V11.6217ZM31.8974 11.5997C31.838 11.4359 31.7477 11.2852 31.6316 11.1558C31.5161 11.0272 31.3781 10.921 31.2246 10.8424C31.0571 10.7573 30.877 10.7001 30.6913 10.673V10.6561C30.9798 10.5726 31.2381 10.4067 31.4348 10.1783C31.6287 9.94027 31.7292 9.63891 31.7174 9.33125C31.73 9.05534 31.6628 8.78167 31.524 8.54348C31.3973 8.34928 31.2236 8.19071 31.0193 8.08268C30.7996 7.96838 30.5616 7.89384 30.3162 7.86244C30.0588 7.82541 29.7991 7.80673 29.5391 7.80654H27.3188V13.8037H29.7578C30.0247 13.8039 30.2908 13.7755 30.5517 13.719C30.8057 13.6678 31.0492 13.5733 31.2717 13.4395C31.4822 13.313 31.6607 13.139 31.7931 12.9313C31.9349 12.6921 32.005 12.4168 31.995 12.1384C31.9952 11.9548 31.9639 11.7725 31.9024 11.5997H31.8974ZM28.6308 8.93144H29.5223C29.6267 8.93185 29.7309 8.94206 29.8335 8.96193C29.9329 8.97995 30.0293 9.01248 30.1194 9.0585C30.2026 9.10416 30.2731 9.16995 30.3246 9.24993C30.3814 9.34232 30.4096 9.44968 30.4054 9.55827C30.4078 9.6645 30.3829 9.76956 30.3331 9.86321C30.2877 9.94545 30.223 10.0153 30.1447 10.0665C30.0631 10.1185 29.9732 10.1558 29.8789 10.1766C29.7813 10.1998 29.6814 10.2111 29.5812 10.2105H28.6308V8.93144ZM30.6022 12.3197C30.5516 12.4081 30.4813 12.4835 30.397 12.5399C30.3115 12.5979 30.2154 12.6382 30.1144 12.6585C30.0139 12.6813 29.9112 12.6927 29.8082 12.6924H28.6308V11.3371H29.6232C29.7358 11.3382 29.8482 11.3467 29.9596 11.3625C30.078 11.3789 30.1938 11.4102 30.3045 11.4557C30.4076 11.4992 30.4984 11.5679 30.5685 11.6556C30.6417 11.7528 30.6792 11.8725 30.6745 11.9944C30.6799 12.1074 30.6549 12.2198 30.6022 12.3197V12.3197Z" fill="url(#paint0_linear_7_218)"/>
</g>
<defs>
<linearGradient id="paint0_linear_7_218" x1="0" y1="6.90526" x2="32" y2="6.90526" gradientUnits="userSpaceOnUse">
<stop stop-color="#90CEA1"/>
<stop offset="0.56" stop-color="#3CBEC9"/>
<stop offset="1" stop-color="#00B3E5"/>
</linearGradient>
<clipPath id="clip0_7_218">
<rect width="32" height="13.8105" fill="white"/>
</clipPath>
</defs>
</svg>
