<svg width="95" height="41" viewBox="0 0 95 41" fill="none" xmlns="http://www.w3.org/2000/svg">
<path d="M52.7683 18.1362H86.1761C88.5155 18.1362 90.7591 17.2005 92.4138 15.535C94.0684 13.8694 94.9987 11.6103 95 9.25417C95 6.89719 94.0703 4.63674 92.4155 2.9701C90.7608 1.30346 88.5164 0.367149 86.1761 0.367149H52.7683C50.4281 0.367149 48.1837 1.30346 46.5289 2.9701C44.8741 4.63674 43.9445 6.89719 43.9445 9.25417V9.25417C43.9458 11.6103 44.8761 13.8694 46.5307 15.535C48.1854 17.2005 50.429 18.1362 52.7683 18.1362V18.1362ZM8.82385 40.7686H47.2253C49.5647 40.7686 51.8083 39.833 53.463 38.1675C55.1176 36.5019 56.0479 34.2428 56.0492 31.8867V31.8867C56.0492 29.5297 55.1195 27.2692 53.4648 25.6026C51.81 23.9359 49.5656 22.9996 47.2253 22.9996H8.82385C6.48362 22.9996 4.23924 23.9359 2.58445 25.6026C0.929653 27.2692 0 29.5297 0 31.8867H0C0.00132392 34.2428 0.931562 36.5019 2.58621 38.1675C4.24086 39.833 6.48449 40.7686 8.82385 40.7686V40.7686ZM5.19843 17.8143H9.09351V3.48037H14.1371V0H0.154804V3.47031H5.19843V17.8143ZM19.2307 17.8143H23.1258V4.14929H23.1757L27.67 17.8042H30.6663L35.3104 4.14929H35.3603V17.8042H39.2554V0H33.3379L29.2431 11.618H29.1931L25.1233 0H19.2307V17.8143ZM76.1188 27.9989C75.5979 26.9049 74.8239 25.9528 73.8617 25.2226C72.8635 24.4874 71.7293 23.9607 70.5259 23.6736C69.2078 23.3419 67.8546 23.173 66.496 23.1706H60.6534V40.9749H67.0203C68.2993 40.9811 69.5714 40.7859 70.7906 40.3965C71.9416 40.0437 73.0171 39.4774 73.9616 38.7267C74.8803 37.9757 75.6251 37.0316 76.1438 35.9605C76.7046 34.7704 76.9833 33.4653 76.9578 32.1482C76.9985 30.7185 76.7114 29.2987 76.1188 27.9989V27.9989ZM72.4085 34.502C72.1164 35.1731 71.6634 35.7607 71.0902 36.212C70.4944 36.653 69.8143 36.9647 69.0927 37.1273C68.274 37.3173 67.436 37.4101 66.5959 37.404H64.5734V26.8421H66.8705C67.6587 26.8382 68.4436 26.9448 69.2026 27.159C69.9008 27.3486 70.5579 27.6675 71.1401 28.0995C71.674 28.5226 72.1073 29.0604 72.4085 29.6737C72.7516 30.3809 72.9227 31.1601 72.9079 31.947C72.9298 32.8253 72.7593 33.6976 72.4085 34.502V34.502ZM94.6954 34.4366C94.519 33.9503 94.2511 33.5029 93.9064 33.1189C93.5634 32.737 93.1538 32.4216 92.6979 32.1884C92.2007 31.9356 91.6661 31.7658 91.1149 31.6855V31.6352C91.9714 31.3875 92.7382 30.8948 93.3221 30.2169C93.8977 29.5102 94.1962 28.6155 94.1611 27.7022C94.1985 26.883 93.999 26.0706 93.5868 25.3635C93.2106 24.7869 92.6951 24.3162 92.0887 23.9955C91.4363 23.6561 90.7297 23.4348 90.0013 23.3416C89.2371 23.2317 88.4662 23.1762 87.6942 23.1757H81.1026V40.9799H88.3434C89.1357 40.9803 89.9258 40.896 90.7004 40.7284C91.4546 40.5763 92.1774 40.2957 92.8377 39.8986C93.4627 39.523 93.9926 39.0065 94.3858 38.3897C94.8068 37.6798 95.015 36.8623 94.985 36.0359C94.9858 35.4909 94.8929 34.9497 94.7104 34.4366H94.6954ZM84.9976 26.5152H87.6443C87.9544 26.5164 88.2636 26.5467 88.5681 26.6057C88.8634 26.6592 89.1494 26.7558 89.417 26.8924C89.6638 27.028 89.8732 27.2233 90.0263 27.4607C90.1949 27.735 90.2784 28.0537 90.266 28.3761C90.2733 28.6915 90.1993 29.0034 90.0512 29.2814C89.9166 29.5256 89.7245 29.7328 89.492 29.8849C89.2499 30.0394 88.9829 30.1501 88.703 30.2118C88.4133 30.2806 88.1166 30.3143 87.8191 30.3124H84.9976V26.5152ZM90.8502 36.5741C90.7 36.8365 90.4915 37.0603 90.241 37.2279C89.9872 37.3999 89.702 37.5196 89.4021 37.58C89.1038 37.6477 88.799 37.6814 88.4932 37.6806H84.9976V33.657H87.9439C88.2781 33.6602 88.6117 33.6854 88.9426 33.7325C89.2941 33.7811 89.638 33.874 89.9664 34.0091C90.2726 34.1382 90.5421 34.3422 90.7504 34.6026C90.9677 34.8911 91.0789 35.2466 91.065 35.6084C91.081 35.9439 91.0068 36.2775 90.8502 36.5741V36.5741Z" fill="url(#paint0_linear_1_4)"/>
<defs>
<linearGradient id="paint0_linear_1_4" x1="0" y1="20.5" x2="95" y2="20.5" gradientUnits="userSpaceOnUse">
<stop stop-color="#90CEA1"/>
<stop offset="0.56" stop-color="#3CBEC9"/>
<stop offset="1" stop-color="#00B3E5"/>
</linearGradient>
</defs>
</svg>
